<?xml version="1.0" encoding="UTF-8"?>
<svg version="1.1" xmlns="http://www.w3.org/2000/svg" width="855" height="133">
<path d="M0 0 C2.75496141 1.91622871 5.26252862 3.97690076 7.7578125 6.22265625 C7.7578125 5.56265625 7.7578125 4.90265625 7.7578125 4.22265625 C9.83984375 2.75 9.83984375 2.75 12.5703125 1.16015625 C13.46363281 0.63292969 14.35695313 0.10570312 15.27734375 -0.4375 C21.42189779 -3.75652683 28.1970891 -3.4057067 34.9453125 -2.21484375 C41.22738472 0.99599316 46.03070594 5.1442888 48.28515625 11.9375 C49.68363812 18.69875531 49.89591655 25.31535872 49.85546875 32.19140625 C49.8540538 33.11232056 49.85263885 34.03323486 49.85118103 34.98205566 C49.84562657 37.89562359 49.83308275 40.80911193 49.8203125 43.72265625 C49.81529161 45.7096343 49.81072973 47.69661356 49.80664062 49.68359375 C49.7956721 54.52997813 49.77843933 59.37630374 49.7578125 64.22265625 C46.82854628 65.68728936 44.20524469 65.35448333 40.9453125 65.34765625 C39.72199219 65.35023437 38.49867188 65.3528125 37.23828125 65.35546875 C34.25480103 65.24162102 31.66045916 64.84795632 28.7578125 64.22265625 C28.76828613 63.25030029 28.77875977 62.27794434 28.78955078 61.27612305 C28.82615481 57.61763287 28.84885765 53.95915837 28.86767578 50.30053711 C28.87764239 48.72661606 28.8912206 47.15271307 28.90869141 45.57885742 C29.51693371 32.13913786 29.51693371 32.13913786 26.7578125 19.22265625 C24.60343287 17.80768298 23.33788093 17.22265625 20.7578125 17.22265625 C20.7578125 16.56265625 20.7578125 15.90265625 20.7578125 15.22265625 C15.44369756 17.14657274 15.44369756 17.14657274 11.7578125 21.22265625 C10.00387729 30.21898191 10.64123042 39.77436721 10.6953125 48.91015625 C10.70034106 50.40169119 10.70490155 51.89322779 10.70898438 53.38476562 C10.71987446 56.99743087 10.73706314 60.61003257 10.7578125 64.22265625 C7.33954503 65.93178998 3.52426487 65.40724104 -0.2421875 65.41015625 C-1.07492188 65.42240234 -1.90765625 65.43464844 -2.765625 65.44726562 C-3.56226563 65.44919922 -4.35890625 65.45113281 -5.1796875 65.453125 C-5.91058594 65.45723389 -6.64148438 65.46134277 -7.39453125 65.46557617 C-9.2421875 65.22265625 -9.2421875 65.22265625 -11.2421875 63.22265625 C-10.90885417 61.88932292 -10.57552083 60.55598958 -10.2421875 59.22265625 C-10.39300781 58.39378906 -10.54382813 57.56492188 -10.69921875 56.7109375 C-11.40574718 52.17187356 -11.38731493 47.74585591 -11.3671875 43.16015625 C-11.37298828 41.83274414 -11.37298828 41.83274414 -11.37890625 40.47851562 C-11.37251985 36.22198045 -11.11457453 32.39657697 -10.2421875 28.22265625 C-10.55136133 23.79116471 -11.19361076 20.24127365 -14.4296875 17.09765625 C-18.15405258 15.93896489 -20.4889436 16.19904428 -24.2421875 17.22265625 C-27.40226044 19.63429086 -28.50787635 21.39220281 -29.2421875 25.22265625 C-29.32450275 26.5653944 -29.36008059 27.91158412 -29.35571289 29.25683594 C-29.35559959 30.42759674 -29.35559959 30.42759674 -29.35548401 31.62200928 C-29.35032272 32.45444153 -29.34516144 33.28687378 -29.33984375 34.14453125 C-29.33772133 35.43451019 -29.33772133 35.43451019 -29.33555603 36.75054932 C-29.32996847 39.49128734 -29.31741825 42.23194301 -29.3046875 44.97265625 C-29.29967089 46.83333215 -29.29510827 48.69400934 -29.29101562 50.5546875 C-29.28000311 55.11070871 -29.26274701 59.66666853 -29.2421875 64.22265625 C-31.88847744 65.54580122 -33.91091726 65.35514048 -36.8671875 65.34765625 C-38.37152344 65.35152344 -38.37152344 65.35152344 -39.90625 65.35546875 C-42.47435566 65.25322567 -44.90960013 65.04389456 -47.45068359 64.71435547 C-48.70187988 64.55209473 -49.95307617 64.38983398 -51.2421875 64.22265625 C-51.34943456 42.19576062 -51.36650603 20.22717604 -50.2421875 -1.77734375 C-43.9721875 -1.77734375 -37.7021875 -1.77734375 -31.2421875 -1.77734375 C-30.5821875 -0.45734375 -29.9221875 0.86265625 -29.2421875 2.22265625 C-27.6334375 1.26359375 -27.6334375 1.26359375 -25.9921875 0.28515625 C-18.22539728 -4.34504561 -7.83155481 -4.57113764 0 0 Z M-31.2421875 3.22265625 C-30.9121875 3.88265625 -30.5821875 4.54265625 -30.2421875 5.22265625 C-29.9121875 4.56265625 -29.5821875 3.90265625 -29.2421875 3.22265625 C-29.9021875 3.22265625 -30.5621875 3.22265625 -31.2421875 3.22265625 Z " fill="#121111" transform="translate(202.2421875,36.77734375)"/>
<path d="M0 0 C7.36024756 7.7691502 11.21601456 17.6618374 11.625 28.3125 C11.18105735 39.96599454 7.43358447 49.634664 -1 57.75 C-7.36313705 62.77352925 -15.12882203 63.9378521 -23.05859375 63.74609375 C-27.3846161 63.14961752 -30.91585879 61.37232007 -34.75 59.375 C-35.08 59.375 -35.41 59.375 -35.75 59.375 C-35.75 69.935 -35.75 80.495 -35.75 91.375 C-46.145 91.87 -46.145 91.87 -56.75 92.375 C-57.08 60.365 -57.41 28.355 -57.75 -4.625 C-51.15 -4.625 -44.55 -4.625 -37.75 -4.625 C-37.09 -3.305 -36.43 -1.985 -35.75 -0.625 C-34.14125 -1.5840625 -34.14125 -1.5840625 -32.5 -2.5625 C-21.97602693 -8.83640703 -9.95351492 -5.88162245 0 0 Z M-33.75 16.375 C-37.51858505 22.74260922 -37.83921499 29.5682469 -36.2109375 36.75390625 C-35.22989663 39.68085786 -34.07346449 42.0168786 -32 44.3125 C-27.42912931 46.47096672 -23.37535526 46.82692281 -18.5625 45.375 C-14.844512 43.78981132 -13.13870136 41.88389089 -11.43359375 38.25390625 C-9.09466458 31.82519236 -9.58319914 25.77021806 -11.75 19.375 C-13.57382371 16.37958092 -15.55679261 13.9716037 -18.75 12.375 C-24.78523702 11.72340804 -29.57709482 11.44338478 -33.75 16.375 Z " fill="#111011" transform="translate(316.75,39.625)"/>
<path d="M0 0 C1.18613892 0.07069702 1.18613892 0.07069702 2.39624023 0.14282227 C3.67724609 0.21533203 3.67724609 0.21533203 4.98413086 0.28930664 C5.88196289 0.34538086 6.77979492 0.40145508 7.70483398 0.45922852 C8.6065332 0.51143555 9.50823242 0.56364258 10.43725586 0.61743164 C12.67259948 0.74753101 14.90754288 0.88250788 17.14233398 1.02172852 C17.47233398 3.00172852 17.80233398 4.98172852 18.14233398 7.02172852 C18.6850293 6.60020508 19.22772461 6.17868164 19.78686523 5.74438477 C20.50229492 5.1965332 21.21772461 4.64868164 21.95483398 4.08422852 C22.6625293 3.53895508 23.37022461 2.99368164 24.09936523 2.43188477 C28.94775199 -0.91470724 34.48935847 -0.50597892 40.14233398 0.02172852 C49.68672628 2.42651665 55.55189793 6.29134325 60.78295898 14.62329102 C66.3590724 24.46160606 66.87590848 36.56942092 64.01733398 47.45922852 C60.76229696 56.42564996 55.70864733 62.70933528 47.14233398 67.02172852 C38.45430392 70.46698182 30.54917325 69.62745098 22.11108398 65.99438477 C20.14233398 65.02172852 20.14233398 65.02172852 19.14233398 64.02172852 C18.81233398 74.91172852 18.48233398 85.80172852 18.14233398 97.02172852 C13.59178438 97.93183844 9.87272679 97.96244064 5.32983398 97.58422852 C4.63696289 97.53202148 3.9440918 97.47981445 3.23022461 97.42602539 C1.53378962 97.29733032 -0.16201465 97.16036668 -1.85766602 97.02172852 C-2.98266602 93.27172852 -2.98266602 93.27172852 -1.85766602 91.02172852 C-2.51766602 90.69172852 -3.17766602 90.36172852 -3.85766602 90.02172852 C-3.19766602 90.02172852 -2.53766602 90.02172852 -1.85766602 90.02172852 C-1.92831268 88.99611816 -1.99895935 87.97050781 -2.07174683 86.91381836 C-2.75760705 76.47973535 -3.00648991 66.10110002 -2.99047852 55.64672852 C-2.99115453 54.05916326 -2.99212702 52.47159811 -2.99337769 50.8840332 C-2.99483379 47.60016875 -2.99276386 44.3163319 -2.98803711 41.0324707 C-2.98226496 36.81694414 -2.9856784 32.60148022 -2.99160957 28.38595581 C-2.99520805 25.1278841 -2.99408122 21.86982751 -2.99148178 18.61175537 C-2.9908144 17.05515536 -2.99163435 15.49855398 -2.99396133 13.94195557 C-2.99648416 11.78621709 -2.99265609 9.63058407 -2.98706055 7.47485352 C-2.98626495 6.24927734 -2.98546936 5.02370117 -2.98464966 3.76098633 C-2.81182643 0.03288902 -2.81182643 0.03288902 0 0 Z M21.14233398 21.02172852 C16.90723254 28.13064879 16.32838483 34.65600122 17.82983398 42.70922852 C19.40096797 46.67447144 20.67691134 48.51482703 24.14233398 51.02172852 C28.75158356 52.42266366 32.32721982 52.24889148 36.95483398 50.95922852 C40.80839935 48.61686526 42.23771925 47.12397564 44.14233398 43.02172852 C45.7254504 35.97958997 45.64546572 29.44842976 42.14233398 23.02172852 C39.53308809 19.90336147 37.76860409 18.29016733 33.70483398 17.61938477 C28.83101011 17.43806691 24.88833762 17.61627067 21.14233398 21.02172852 Z " fill="#246EFC" transform="translate(530.857666015625,33.978271484375)"/>
<path d="M0 0 C0.99 0.66 1.98 1.32 3 2 C1.51364884 6.21654356 -0.61249159 9.62478605 -3.125 13.3125 C-4.21167969 14.91544922 -4.21167969 14.91544922 -5.3203125 16.55078125 C-5.87460938 17.35902344 -6.42890625 18.16726562 -7 19 C-10.15332829 18.38197575 -12.29150672 17.30241918 -14.9375 15.5 C-20.9661397 11.64744388 -27.30045946 10.98840399 -34.3046875 12.49609375 C-40.91812912 14.46676575 -45.84541625 17.50188264 -49.25 23.6875 C-53.41797347 33.01748246 -54.20681764 42.97380931 -51.12890625 52.7734375 C-47.9686747 60.05618564 -43.2271159 63.81356047 -35.9921875 66.83984375 C-27.92253031 69.33915053 -20.87262917 67.66790925 -13.5 63.9375 C-12.4996875 63.38964844 -11.499375 62.84179688 -10.46875 62.27734375 C-8 61 -8 61 -6 61 C-4.76564939 62.76710099 -3.61073584 64.59019568 -2.5 66.4375 C-0.37758703 70.37836765 -0.37758703 70.37836765 3 73 C3 74.32 3 75.64 3 77 C-7.075843 86.20758399 -20.63754164 88.93995935 -33.84765625 88.37890625 C-46.63744865 87.43990883 -56.5460851 81.89258569 -65.3125 72.75 C-74.97981702 61.28592911 -77.15172111 47.5095332 -76 33 C-73.9407148 19.83259976 -68.07885256 8.18931004 -57.1875 0.1875 C-39.98945778 -11.11182347 -16.97967544 -11.8818514 0 0 Z " fill="#121212" transform="translate(78,15)"/>
<path d="M0 0 C1.24122192 0.90027586 2.4756395 1.81057326 3.6875 2.75 C2.08999938 6.10395653 0.22216734 9.2280147 -1.75 12.375 C-2.34683594 13.33664063 -2.94367187 14.29828125 -3.55859375 15.2890625 C-5.3125 17.75 -5.3125 17.75 -8.3125 19.75 C-8.993125 18.8528125 -8.993125 18.8528125 -9.6875 17.9375 C-14.68258246 13.77493128 -20.81076209 12.3594401 -27.25 12.875 C-29.79910476 13.18033741 -31.01782971 13.51599713 -33.0390625 15.12109375 C-34.56659714 16.79911898 -34.56659714 16.79911898 -34.75 19.6875 C-34.20782894 23.48269744 -33.1957265 24.31067925 -30.3125 26.75 C-27.96713317 27.9005432 -27.96713317 27.9005432 -25.390625 28.6796875 C-24.44703125 29.00066406 -23.5034375 29.32164063 -22.53125 29.65234375 C-20.56850369 30.29540142 -18.60497235 30.93606848 -16.640625 31.57421875 C-7.79908513 34.58947216 0.06622321 38.91503601 4.58984375 47.453125 C7.81473168 54.76485246 7.79376839 62.44884388 5.125 69.9375 C1.83078332 77.20789401 -2.8945571 82.81520974 -10.296875 86.0078125 C-22.56934412 90.52674493 -34.23944476 89.59480023 -46.3125 84.75 C-50.36828729 82.81729909 -54.12106576 80.94143424 -57.3125 77.75 C-56.86836814 71.53215401 -50.85051838 65.66391442 -47.3125 60.75 C-46.64605469 61.23210937 -45.97960937 61.71421875 -45.29296875 62.2109375 C-38.27738415 67.01882065 -31.86215916 70.25198118 -23.171875 69.5859375 C-20.09043676 68.92562931 -18.4286014 67.87698591 -16.3125 65.5625 C-14.96028131 61.75938494 -15.12139423 59.60357748 -16.3125 55.75 C-20.97582586 51.98854376 -26.00022098 50.27663732 -31.625 48.375 C-41.38181382 44.90184195 -49.17557134 41.79597706 -54.53515625 32.484375 C-55.3125 30.75 -55.3125 30.75 -55.3125 28.75 C-55.9725 28.42 -56.6325 28.09 -57.3125 27.75 C-57.67987566 17.64716944 -56.16876126 9.54587736 -49.3125 1.75 C-35.24344552 -10.5974111 -15.23226642 -10.07526086 0 0 Z " fill="#256EFC" transform="translate(515.3125,14.25)"/>
<path d="M0 0 C0.33 0.66 0.66 1.32 1 2 C5.95 2 10.9 2 16 2 C16.94367892 5.77471566 17.11521178 8.65340835 17.09765625 12.515625 C17.09443359 13.76601563 17.09121094 15.01640625 17.08789062 16.3046875 C17.07951172 17.60664063 17.07113281 18.90859375 17.0625 20.25 C17.05798828 21.56742188 17.05347656 22.88484375 17.04882812 24.2421875 C17.03704316 27.49483741 17.02059011 30.74739584 17 34 C17.87785156 33.37609375 18.75570312 32.7521875 19.66015625 32.109375 C26.12568648 28.02588222 33.40556685 26.49370446 41 27 C41 27.66 41 28.32 41 29 C41.70125 29.0825 42.4025 29.165 43.125 29.25 C48.04561537 30.53363879 50.75038965 32.15520844 53.58081055 36.33374023 C58.19045635 44.7769217 58.89737766 52.34690861 58.875 61.75 C58.89320337 63.10160048 58.91402933 64.45316823 58.9375 65.8046875 C58.98907038 69.17347935 58.99648773 72.54078798 58.99304199 75.90991211 C59.0003679 78.1105133 59.03558003 80.30952125 59.07519531 82.50976562 C59.09445866 83.97005132 59.11366614 85.43033776 59.1328125 86.890625 C59.1548877 88.20579102 59.17696289 89.52095703 59.19970703 90.87597656 C59 94 59 94 57 96 C55.12060547 96.22705078 55.12060547 96.22705078 52.8671875 96.1953125 C52.06152344 96.18886719 51.25585938 96.18242188 50.42578125 96.17578125 C49.58402344 96.15902344 48.74226562 96.14226562 47.875 96.125 C47.02550781 96.11597656 46.17601562 96.10695313 45.30078125 96.09765625 C43.20040116 96.07405647 41.10016556 96.03818483 39 96 C37.87585794 92.62757382 37.91757258 90.15310094 37.97265625 86.6015625 C37.98490234 85.31636719 37.99714844 84.03117187 38.00976562 82.70703125 C38.04224336 80.02456295 38.08334859 77.34249607 38.12695312 74.66015625 C38.4640123 62.1440554 38.4640123 62.1440554 36 50 C33.43335808 48.04973303 31.88081403 47.04096809 28.6484375 46.890625 C27.89820313 47.00921875 27.14796875 47.1278125 26.375 47.25 C25.61960937 47.35828125 24.86421875 47.4665625 24.0859375 47.578125 C21.81990651 47.99231377 21.81990651 47.99231377 19 49 C17.02323743 59.20138745 16.75506435 68.96522153 16.875 79.3125 C16.88506222 80.84309302 16.89418227 82.37369254 16.90234375 83.90429688 C16.92407212 87.6030027 16.95841819 91.30145769 17 95 C14.22949974 95.1946838 11.45886998 95.38102792 8.6875 95.5625 C7.50897461 95.64661133 7.50897461 95.64661133 6.30664062 95.73242188 C5.1706543 95.80493164 5.1706543 95.80493164 4.01171875 95.87890625 C2.96697388 95.94960327 2.96697388 95.94960327 1.90112305 96.02172852 C0 96 0 96 -3 95 C-4.15388376 79.82472005 -4.15520084 64.64887424 -4.13037109 49.43969727 C-4.12464733 45.88564854 -4.12798495 42.33167495 -4.13394356 38.7776289 C-4.13759142 35.99173944 -4.13639185 33.20586723 -4.13381577 30.41997719 C-4.13284633 28.48548456 -4.13582505 26.5509912 -4.13894653 24.61650085 C-4.1181925 16.70096018 -3.72212115 8.88254685 -3 1 C-2.01 0.67 -1.02 0.34 0 0 Z " fill="#236FFD" transform="translate(606,6)"/>
<path d="M0 0 C6.93 0 13.86 0 21 0 C20.98839844 1.78148437 20.97679687 3.56296875 20.96484375 5.3984375 C20.95546665 7.72395729 20.94636637 10.04947821 20.9375 12.375 C20.92912109 13.550625 20.92074219 14.72625 20.91210938 15.9375 C20.90888672 17.05898438 20.90566406 18.18046875 20.90234375 19.3359375 C20.89710693 20.37282715 20.89187012 21.4097168 20.88647461 22.47802734 C20.82859185 24.9959668 20.82859185 24.9959668 22 27 C21.84789062 27.74121094 21.69578125 28.48242188 21.5390625 29.24609375 C20.93166499 32.34910274 21.08095079 34.9193524 21.375 38.0625 C21.46523438 39.08472656 21.55546875 40.10695312 21.6484375 41.16015625 C21.9413558 43.5262852 22.35220099 45.71074419 23 48 C27.71767428 49.50965577 32.24784024 49.77873767 36.8125 47.75 C39.61820012 45.5054399 40.79823184 43.5038085 41.2784729 39.92449951 C41.29179657 39.18725647 41.30512024 38.45001343 41.31884766 37.69042969 C41.33871735 36.84986023 41.35858704 36.00929077 41.37905884 35.14324951 C41.39638565 33.79616913 41.39638565 33.79616913 41.4140625 32.421875 C41.43342865 31.4953009 41.4527948 30.56872681 41.4727478 29.61407471 C41.53244767 26.65947629 41.57889068 23.70483871 41.625 20.75 C41.6631886 18.74477483 41.70224085 16.73956591 41.7421875 14.734375 C41.83976445 9.82300201 41.91940918 4.91179863 42 0 C49.26 0 56.52 0 64 0 C63.34 0.33 62.68 0.66 62 1 C62.1065818 1.85644608 62.1065818 1.85644608 62.21531677 2.73019409 C63.02147566 9.83977629 63.12970446 16.85809117 63.09765625 24.0078125 C63.0962413 25.2144455 63.09482635 26.42107849 63.09336853 27.66427612 C63.08781082 31.48454359 63.07526628 35.30475052 63.0625 39.125 C63.05747953 41.72916581 63.05291758 44.33333256 63.04882812 46.9375 C63.03785527 53.29168701 63.02115974 59.64583918 63 66 C61.68 66 60.36 66 59 66 C58.67 66.66 58.34 67.32 58 68 C58 67.34 58 66.68 58 66 C53.05 66 48.1 66 43 66 C42.67 64.35 42.34 62.7 42 61 C41.154375 61.78375 40.30875 62.5675 39.4375 63.375 C33.90172417 67.91948574 27.74136534 68.45981522 20.78125 68.31640625 C14.98027303 67.65646364 10.62479402 65.30689954 6.125 61.6875 C1.50843286 55.84890038 -0.13325311 49.43690392 -0.11352539 42.11791992 C-0.11344986 41.17732224 -0.11337433 40.23672455 -0.11329651 39.2676239 C-0.10813522 38.2653627 -0.10297394 37.2631015 -0.09765625 36.23046875 C-0.0962413 35.19432938 -0.09482635 34.15819 -0.09336853 33.09065247 C-0.08778242 29.78957196 -0.07523242 26.48855992 -0.0625 23.1875 C-0.05748321 20.94596452 -0.05292061 18.70442798 -0.04882812 16.46289062 C-0.03866952 10.97521299 -0.01909128 5.4876829 0 0 Z " fill="#121212" transform="translate(333,35)"/>
<path d="M0 0 C6.47619048 5.6116873 8.43822923 13.31920103 9.66796875 21.4453125 C9.9013729 24.7663997 9.90392517 28.06270111 9.86328125 31.390625 C9.86045135 32.28651337 9.85762146 33.18240173 9.85470581 34.10543823 C9.84363715 36.92720714 9.81855885 39.74864183 9.79296875 42.5703125 C9.78292169 44.49999537 9.77379889 46.42968329 9.765625 48.359375 C9.74374169 53.0548135 9.70930627 57.75000662 9.66796875 62.4453125 C6.10294308 63.63365439 2.81774146 63.66721583 -0.89453125 63.6953125 C-1.57966797 63.7159375 -2.26480469 63.7365625 -2.97070312 63.7578125 C-4.9609375 63.7734375 -4.9609375 63.7734375 -8.33203125 63.4453125 C-8.99203125 62.4553125 -9.65203125 61.4653125 -10.33203125 60.4453125 C-10.66203125 60.1153125 -10.99203125 59.7853125 -11.33203125 59.4453125 C-12.42515625 60.0846875 -13.51828125 60.7240625 -14.64453125 61.3828125 C-21.38750077 65.32681354 -28.09981368 65.36146313 -35.65234375 63.7265625 C-41.7007843 61.91931761 -41.7007843 61.91931761 -44.33203125 60.4453125 C-45.56640625 58.03125 -45.56640625 58.03125 -46.33203125 55.4453125 C-46.62464844 54.82269531 -46.91726562 54.20007813 -47.21875 53.55859375 C-49.67320818 48.03905609 -49.82883738 43.29308303 -48.33203125 37.4453125 C-46.12479459 32.01721547 -42.80629462 28.29732678 -37.72265625 25.40625 C-33.90902031 23.87331791 -30.0295576 23.32463726 -25.96875 22.8046875 C-23.23056954 22.51438823 -23.23056954 22.51438823 -20.33203125 21.4453125 C-17.8515625 21.78515625 -17.8515625 21.78515625 -15.14453125 22.3828125 C-14.24347656 22.57746094 -13.34242187 22.77210937 -12.4140625 22.97265625 C-11.72699219 23.12863281 -11.03992188 23.28460938 -10.33203125 23.4453125 C-10.73031875 22.14786078 -11.15147047 20.8574144 -11.58203125 19.5703125 C-11.8140625 18.85101563 -12.04609375 18.13171875 -12.28515625 17.390625 C-13.62941569 14.89271007 -14.67441652 14.37073191 -17.33203125 13.4453125 C-24.74436015 12.47465038 -31.59241863 13.61533538 -37.64453125 18.1953125 C-38.20140625 18.6078125 -38.75828125 19.0203125 -39.33203125 19.4453125 C-43.25209064 18.13862604 -43.61235167 16.65863555 -45.51953125 13.0703125 C-46.31423828 11.60464844 -46.31423828 11.60464844 -47.125 10.109375 C-48.33203125 7.4453125 -48.33203125 7.4453125 -48.33203125 4.4453125 C-34.90991807 -5.59890219 -14.99031749 -9.26175223 0 0 Z M-28.33203125 38.4453125 C-29.46583295 42.07347793 -29.53670574 43.83128903 -28.33203125 47.4453125 C-25.28786117 49.53312826 -23.1705117 49.59803021 -19.58203125 49.0703125 C-18.38320312 48.90402344 -18.38320312 48.90402344 -17.16015625 48.734375 C-16.556875 48.63898438 -15.95359375 48.54359375 -15.33203125 48.4453125 C-15.00203125 47.4553125 -14.67203125 46.4653125 -14.33203125 45.4453125 C-13.34203125 45.1153125 -12.35203125 44.7853125 -11.33203125 44.4453125 C-10.53249987 41.15835017 -10.23544189 39.73508058 -11.33203125 36.4453125 C-16.66252674 33.78006475 -23.71432828 34.98203527 -28.33203125 38.4453125 Z " fill="#121112" transform="translate(133.33203125,38.5546875)"/>
<path d="M0 0 C7.08346826 5.82672389 10.17328053 13.39542979 11.6875 22.3125 C11.8978066 25.99743737 11.87993933 29.62764323 11.6875 33.3125 C9.40118506 34.45565747 8.14402594 34.43362732 5.60498047 34.42602539 C4.34389969 34.42591209 4.34389969 34.42591209 3.05734253 34.42579651 C1.69477829 34.41805458 1.69477829 34.41805458 0.3046875 34.41015625 C-0.62471649 34.4087413 -1.55412048 34.40732635 -2.51168823 34.40586853 C-5.48699124 34.40026053 -8.46221964 34.38770668 -11.4375 34.375 C-13.45182183 34.36998603 -15.46614484 34.36542295 -17.48046875 34.36132812 C-22.42450802 34.3502885 -27.36849135 34.33301849 -32.3125 34.3125 C-31.70568555 35.60913298 -31.08923605 36.90125978 -30.46875 38.19140625 C-30.12650391 38.91142822 -29.78425781 39.6314502 -29.43164062 40.37329102 C-27.52210529 43.68206919 -24.89305563 44.73296294 -21.4375 46 C-14.80975355 46.9746686 -8.40639024 46.14931097 -2.3125 43.3125 C-1.9825 42.3225 -1.6525 41.3325 -1.3125 40.3125 C3.10059542 43.46471101 5.69543014 46.86713907 8.6875 51.3125 C6.51227057 56.80406282 1.77508931 58.81642444 -3.3125 61.3125 C-13.07161729 64.92320308 -24.84754059 64.56533649 -34.3125 60.3125 C-42.298835 55.60626687 -48.27094159 49.11701119 -51.3125 40.3125 C-53.98964112 29.60393553 -52.57015757 18.69081736 -47.125 9.125 C-42.61470519 2.41389868 -35.9454549 -3.35879635 -27.9609375 -5.2421875 C-18.05184649 -6.90831785 -8.38428115 -5.76223068 0 0 Z M-28.3125 13.3125 C-30.91941129 16.70148468 -31.3125 17.93984613 -31.3125 22.3125 C-23.3925 22.3125 -15.4725 22.3125 -7.3125 22.3125 C-8.84967673 15.45714765 -8.84967673 15.45714765 -13.3125 11.3125 C-18.97915928 9.74742267 -23.38942493 9.79601781 -28.3125 13.3125 Z " fill="#256EFC" transform="translate(724.3125,39.6875)"/>
<path d="M0 0 C8.79913662 7.1992936 12.51915209 15.84115531 13.8671875 27.08203125 C13.75 29.25 13.75 29.25 11.75 35.25 C-2.11 35.25 -15.97 35.25 -30.25 35.25 C-27.46402546 42.17290011 -27.46402546 42.17290011 -22.25 46.25 C-16.32342926 48.22552358 -11.09412443 47.89599126 -5.4375 45.25 C-4.72980469 44.87875 -4.02210938 44.5075 -3.29296875 44.125 C-1.25 43.25 -1.25 43.25 2.75 43.25 C4.70703125 45.078125 4.70703125 45.078125 6.5625 47.5 C7.18769531 48.28890625 7.81289063 49.0778125 8.45703125 49.890625 C9.75 52.25 9.75 52.25 9.6640625 54.38671875 C7.28545456 59.23541956 0.90523395 61.38495164 -3.9375 63.0625 C-14.38068214 65.86980703 -25.07279967 64.99006705 -34.65625 59.99609375 C-44.74884843 53.82278771 -48.62604899 45.12185304 -52.25 34.25 C-50.88011809 21.15225158 -48.39670558 9.64026913 -37.765625 0.9453125 C-25.95862152 -7.01158115 -12.29894676 -6.6225098 0 0 Z M-28.25 15.25 C-29.24 17.89 -30.23 20.53 -31.25 23.25 C-23 23.25 -14.75 23.25 -6.25 23.25 C-7.35046877 16.42400719 -7.35046877 16.42400719 -12.25 12.25 C-18.635651 10.19319855 -23.11264951 11.0373726 -28.25 15.25 Z " fill="#256EFC" transform="translate(838.25,38.75)"/>
<path d="M0 0 C-1.53837846 3.19624262 -3.28866532 6.21605574 -5.125 9.25 C-5.66382813 10.14203125 -6.20265625 11.0340625 -6.7578125 11.953125 C-7.16773438 12.62859375 -7.57765625 13.3040625 -8 14 C-10.27617099 12.89084888 -12.37141757 11.75857858 -14.5 10.375 C-19.6293939 8.35988097 -24.55387186 8.76206236 -30 9 C-30 10.98 -30 12.96 -30 15 C-28.7625 15.4125 -27.525 15.825 -26.25 16.25 C-25.43144531 16.5284375 -24.61289062 16.806875 -23.76953125 17.09375 C-21.86304306 17.71759381 -19.94220275 18.29867217 -18.01171875 18.84375 C-11.12292952 20.87449854 -5.6114116 23.31259236 -1 29 C1.61294505 34.2258901 1.53962155 39.27495267 1 45 C-1.5192663 52.16002 -6.40950491 56.00182019 -13.03515625 59.203125 C-22.1923185 62.91696416 -32.34169957 61.56512029 -41.38671875 58.22265625 C-44.8760682 56.59012056 -47.28419175 54.71580825 -50 52 C-48.40956621 46.91061189 -45.2553049 43.12543357 -42 39 C-39.27844151 40.04059589 -36.86037528 41.08643435 -34.375 42.625 C-29.6268821 44.55941841 -25.0731106 44.44940673 -20 44 C-18.70366379 42.93354885 -18.70366379 42.93354885 -18.9375 40.4375 C-18.958125 39.633125 -18.97875 38.82875 -19 38 C-22.85975795 35.85569003 -26.65441027 34.43925959 -30.875 33.125 C-37.36956008 30.98969179 -43.49533451 28.70123208 -47.5 22.875 C-50.12023831 17.50585096 -49.93367484 11.39624222 -48.375 5.7265625 C-45.52274697 -0.92020572 -40.22290894 -4.66218874 -33.6875 -7.375 C-20.4190271 -9.62389371 -11.38822844 -6.65708942 0 0 Z " fill="#131315" transform="translate(452,42)"/>
<path d="M0 0 C0.88042969 -0.00257812 1.76085937 -0.00515625 2.66796875 -0.0078125 C4.8125 0.125 4.8125 0.125 5.8125 1.125 C6.08936887 4.26242768 6.04423629 7.41429277 6.0625 10.5625 C6.083125 11.44744141 6.10375 12.33238281 6.125 13.24414062 C6.13273438 14.51354492 6.13273438 14.51354492 6.140625 15.80859375 C6.15464355 16.97733032 6.15464355 16.97733032 6.16894531 18.16967773 C6.05131836 18.81493408 5.93369141 19.46019043 5.8125 20.125 C4.8225 20.785 3.8325 21.445 2.8125 22.125 C2.8125 21.135 2.8125 20.145 2.8125 19.125 C-5.20476256 19.88736777 -5.20476256 19.88736777 -12.3125 23.3125 C-16.0327695 28.89290424 -16.47835533 34.69693601 -16.3828125 41.24609375 C-16.37856766 42.36323509 -16.37856766 42.36323509 -16.37423706 43.50294495 C-16.36313917 45.85630101 -16.3380551 48.20926109 -16.3125 50.5625 C-16.30245672 52.16861425 -16.29333324 53.77473454 -16.28515625 55.38085938 C-16.26494466 59.29584417 -16.22577826 63.20998455 -16.1875 67.125 C-23.1175 67.125 -30.0475 67.125 -37.1875 67.125 C-37.1875 45.345 -37.1875 23.565 -37.1875 1.125 C-30.5875 1.125 -23.9875 1.125 -17.1875 1.125 C-16.8575 3.105 -16.5275 5.085 -16.1875 7.125 C-15.72859375 6.70347656 -15.2696875 6.28195313 -14.796875 5.84765625 C-14.18328125 5.29980469 -13.5696875 4.75195312 -12.9375 4.1875 C-12.33421875 3.64222656 -11.7309375 3.09695312 -11.109375 2.53515625 C-7.61012066 -0.03238606 -4.24143328 -0.01253008 0 0 Z " fill="#256FFD" transform="translate(780.1875,33.875)"/>
<path d="M0 0 C0.66 0 1.32 0 2 0 C2 20.13 2 40.26 2 61 C7.61 61 13.22 61 19 61 C19 48.13 19 35.26 19 22 C19.33 22 19.66 22 20 22 C21.19388403 49.94514191 21.19388403 49.94514191 21 63 C18.35371006 64.32314497 16.33127024 64.13248423 13.375 64.125 C11.87066406 64.12886719 11.87066406 64.12886719 10.3359375 64.1328125 C7.76783184 64.03056942 5.33258737 63.82123831 2.79150391 63.49169922 C1.54030762 63.32943848 0.28911133 63.16717773 -1 63 C-1.20638953 19.99159787 -1.20638953 19.99159787 0 0 Z " fill="#040303" transform="translate(152,38)"/>
<path d="M0 0 C6.27 0 12.54 0 19 0 C19 2.97 19 5.94 19 9 C18.67 9 18.34 9 18 9 C17.67 6.69 17.34 4.38 17 2 C12.05 2 7.1 2 2 2 C2 22.46 2 42.92 2 64 C6.62 64 11.24 64 16 64 C17.485 64.99 17.485 64.99 19 66 C12.73 66 6.46 66 0 66 C0 44.22 0 22.44 0 0 Z " fill="#2161F4" transform="translate(743,35)"/>
<path d="M0 0 C2.29755922 3.44633882 2.23643976 4.71068391 2.1953125 8.76171875 C2.18886719 9.87998047 2.18242188 10.99824219 2.17578125 12.15039062 C2.15902344 13.31763672 2.14226563 14.48488281 2.125 15.6875 C2.11597656 16.86634766 2.10695313 18.04519531 2.09765625 19.25976562 C2.07406423 22.17338026 2.0411454 25.08658892 2 28 C-0.77050026 28.1946838 -3.54113002 28.38102792 -6.3125 28.5625 C-7.09818359 28.61857422 -7.88386719 28.67464844 -8.69335938 28.73242188 C-9.8293457 28.80493164 -9.8293457 28.80493164 -10.98828125 28.87890625 C-11.68477783 28.9260376 -12.38127441 28.97316895 -13.09887695 29.02172852 C-15 29 -15 29 -18 28 C-18 24.37 -18 20.74 -18 17 C-17.67 17 -17.34 17 -17 17 C-17 20.3 -17 23.6 -17 27 C-16.34 26.67 -15.68 26.34 -15 26 C-12.44612508 25.92826194 -9.92723239 25.90712268 -7.375 25.9375 C-4.94125 25.958125 -2.5075 25.97875 0 26 C0 17.42 0 8.84 0 0 Z " fill="#1E5EF7" transform="translate(621,73)"/>
<path d="M0 0 C-0.33 0.66 -0.66 1.32 -1 2 C-1.825 2.2475 -2.65 2.495 -3.5 2.75 C-14.78117802 6.77899215 -21.2091157 15.23568294 -26.5 25.6875 C-26.995 26.780625 -27.49 27.87375 -28 29 C-29.1684996 25.5175637 -29.00352498 25.00866558 -27.5 21.3125 C-21.76017131 10.80900397 -12.81865835 -0.27866649 0 0 Z " fill="#0B0B0C" transform="translate(34,11)"/>
<path d="M0 0 C0.33 0 0.66 0 1 0 C1 12.21 1 24.42 1 37 C6.61 37 12.22 37 18 37 C18 37.66 18 38.32 18 39 C12.06 39.33 6.12 39.66 0 40 C-1.15777343 36.52667971 -1.12949322 33.80001979 -1.1328125 30.13671875 C-1.13376923 29.46711624 -1.13472595 28.79751373 -1.13571167 28.10762024 C-1.13639158 26.6912934 -1.13455045 25.27496342 -1.13037109 23.85864258 C-1.12504532 21.70581935 -1.13030936 19.55320716 -1.13671875 17.40039062 C-1.13605744 16.02083288 -1.13477519 14.64127526 -1.1328125 13.26171875 C-1.13168457 12.01350342 -1.13055664 10.76528809 -1.12939453 9.47924805 C-1.00848065 6.22803341 -0.61614325 3.19054516 0 0 Z " fill="#1352F3" transform="translate(645,62)"/>
<path d="M0 0 C0.66 0.33 1.32 0.66 2 1 C0.63875 2.0209375 0.63875 2.0209375 -0.75 3.0625 C-6.55694074 8.03203321 -8.1846894 12.44142853 -8.9375 19.9375 C-9.20759063 25.84180677 -8.75683493 29.78170532 -6 35 C-5.02986691 36.02900039 -4.03570457 37.03702749 -3 38 C-3.33 38.99 -3.66 39.98 -4 41 C-5.0055761 39.54550599 -6.00430435 38.08627557 -7 36.625 C-7.8353125 35.40683594 -7.8353125 35.40683594 -8.6875 34.1640625 C-10 32 -10 32 -10 30 C-10.66 29.67 -11.32 29.34 -12 29 C-12.37126914 18.79009861 -10.71518741 11.00039074 -4 3 C-2.6990038 1.95827707 -1.37288277 0.94497126 0 0 Z " fill="#205AEA" transform="translate(470,13)"/>
<path d="M0 0 C0.33 0 0.66 0 1 0 C1 8.91 1 17.82 1 27 C-9.395 27.495 -9.395 27.495 -20 28 C-19.67 26.35 -19.34 24.7 -19 23 C-18.67 23.66 -18.34 24.32 -18 25 C-12.39 25 -6.78 25 -1 25 C-0.67 16.75 -0.34 8.5 0 0 Z " fill="#171718" transform="translate(280,104)"/>
<path d="M0 0 C0.63164062 0.47050781 1.26328125 0.94101563 1.9140625 1.42578125 C9.48891845 6.69761903 15.92948856 8.60962963 25 10 C25 10.33 25 10.66 25 11 C17.17341192 11.50494117 10.17763539 10.32364362 3.87890625 5.3125 C2.94884766 4.6628125 2.94884766 4.6628125 2 4 C-0.73398135 4.70957237 -0.73398135 4.70957237 -3 6 C-1.125 1.125 -1.125 1.125 0 0 Z " fill="#205EED" transform="translate(468,75)"/>
<path d="M0 0 C0.7425 0.763125 1.485 1.52625 2.25 2.3125 C7.68942809 7.62830472 11.02237553 9.13839232 18.6875 9.0625 C19.86699219 9.05347656 21.04648437 9.04445313 22.26171875 9.03515625 C23.16535156 9.02355469 24.06898438 9.01195313 25 9 C24.67 9.66 24.34 10.32 24 11 C18.02821944 12.27966726 12.75021542 12.22765979 7 10 C3.3042391 7.0905712 1.40776482 4.47925169 0 0 Z " fill="#2060F2" transform="translate(807,77)"/>
<path d="M0 0 C0.515625 0.66 1.03125 1.32 1.5625 2 C2.366875 2.99 3.17125 3.98 4 5 C4.474375 5.639375 4.94875 6.27875 5.4375 6.9375 C10.05917058 12.80346651 15.06928562 15.39314902 22 18 C18.8305242 19.05882931 17.24102824 19.05183431 14.25 17.5625 C8.335959 14.38397984 2.5319266 9.342604 0 3 C0 2.01 0 1.02 0 0 Z " fill="#1C5BF1" transform="translate(675,82)"/>
<path d="M0 0 C5.53314477 0.40486425 8.97156378 2.36172709 13 6 C15.50836611 9.08721983 16.90433297 10.89982916 17.25 14.875 C17.1675 15.57625 17.085 16.2775 17 17 C15.27396181 14.75615035 13.79411688 12.62117507 12.4375 10.125 C9.45744606 6.30441803 6.24893285 4.5127795 2.046875 2.19921875 C1.37140625 1.80347656 0.6959375 1.40773437 0 1 C0 0.67 0 0.34 0 0 Z " fill="#0C0B0B" transform="translate(306,36)"/>
<path d="M0 0 C2.35208084 2.12744391 3.54684523 3.95791722 4.75 6.875 C6.91585515 11.47744218 9.80152426 13.25484279 14 16 C14 16.66 14 17.32 14 18 C9.7135704 17.52373004 7.77895881 15.12632867 5 12 C1.93242841 7.99511487 0.47976871 5.03757148 0 0 Z " fill="#0B0A0A" transform="translate(24,64)"/>
<path d="M0 0 C0.99 0 1.98 0 3 0 C7.87215086 5.80537378 9.75941268 11.54179322 10 19 C9.34 19 8.68 19 8 19 C7.75765625 18.13117187 7.5153125 17.26234375 7.265625 16.3671875 C4.73939439 7.63129585 4.73939439 7.63129585 0 0 Z " fill="#0A090A" transform="translate(132,40)"/>
<path d="M0 0 C0.33 0 0.66 0 1 0 C1 2.31 1 4.62 1 7 C5.29 7 9.58 7 14 7 C14 7.66 14 8.32 14 9 C11.70954632 9.22127098 9.41755236 9.4266504 7.125 9.625 C5.84882813 9.74101563 4.57265625 9.85703125 3.2578125 9.9765625 C2.18273437 9.98429687 1.10765625 9.99203125 0 10 C-0.66 9.34 -1.32 8.68 -2 8 C-1.6875 6.125 -1.6875 6.125 -1 4 C-0.814375 3.2575 -0.62875 2.515 -0.4375 1.75 C-0.293125 1.1725 -0.14875 0.595 0 0 Z " fill="#0A0909" transform="translate(193,92)"/>
<path d="M0 0 C1.76171875 2.30078125 1.76171875 2.30078125 3.6875 5.3125 C4.33074219 6.29863281 4.97398438 7.28476563 5.63671875 8.30078125 C6.08660156 9.19152344 6.53648438 10.08226563 7 11 C6.67 11.99 6.34 12.98 6 14 C3.69 10.7 1.38 7.4 -1 4 C-2.65 4.33 -4.3 4.66 -6 5 C-4.87312259 1.61936778 -3.78825335 0 0 0 Z " fill="#0A0A0A" transform="translate(72,76)"/>
<path d="M0 0 C2.8125 1.625 2.8125 1.625 3.8125 3.625 C3.05066406 3.39683594 2.28882813 3.16867188 1.50390625 2.93359375 C-6.70187985 0.64908651 -13.48071609 -0.55524217 -21.1875 3.625 C-20.1875 0.625 -20.1875 0.625 -18.48828125 -0.54296875 C-12.81222003 -2.5956021 -5.57529534 -2.27869955 0 0 Z " fill="#1D5EF4" transform="translate(501.1875,26.375)"/>
<path d="M0 0 C0.53109375 0.75667969 1.0621875 1.51335938 1.609375 2.29296875 C4.28769862 5.32577638 6.60343434 6.60812692 10.25 8.3125 C11.32765625 8.82425781 12.4053125 9.33601563 13.515625 9.86328125 C14.33546875 10.23839844 15.1553125 10.61351563 16 11 C16 11.33 16 11.66 16 12 C10.01142369 11.62571398 5.62364396 9.90898236 1 6 C-0.5 3.1875 -0.5 3.1875 -1 1 C-0.67 0.67 -0.34 0.34 0 0 Z " fill="#0A0A0B" transform="translate(406,62)"/>
<path d="M0 0 C0.33 0 0.66 0 1 0 C1.33 4.29 1.66 8.58 2 13 C1.01 13.66 0.02 14.32 -1 15 C-1 14.01 -1 13.02 -1 12 C-5.95 12.66 -10.9 13.32 -16 14 C-15 12 -15 12 -12 11 C-9.93854893 10.931009 -7.87498599 10.91532273 -5.8125 10.9375 C-4.18248047 10.95103516 -4.18248047 10.95103516 -2.51953125 10.96484375 C-1.68808594 10.97644531 -0.85664062 10.98804688 0 11 C0 7.37 0 3.74 0 0 Z " fill="#2865F3" transform="translate(784,41)"/>
<path d="M0 0 C2.9375 2.5625 2.9375 2.5625 5 5 C4.34 5.66 3.68 6.32 3 7 C2.67 6.360625 2.34 5.72125 2 5.0625 C-0.48169088 2.50325628 -2.50423364 2.29877993 -5.9921875 2.015625 C-8.43987315 1.99657686 -10.64564026 2.33783632 -13 3 C-13 2.34 -13 1.68 -13 1 C-8.2523358 -0.96854369 -4.98886981 -1.36060086 0 0 Z " fill="#0C0B0B" transform="translate(188,51)"/>
<path d="M0 0 C0.66 0 1.32 0 2 0 C1.98839844 0.77085938 1.97679687 1.54171875 1.96484375 2.3359375 C1.95582031 3.33882812 1.94679688 4.34171875 1.9375 5.375 C1.92589844 6.37273438 1.91429687 7.37046875 1.90234375 8.3984375 C1.81993398 10.98432453 1.81993398 10.98432453 3 13 C2.70640699 15.0062189 2.36270588 17.00511766 2 19 C1.63337778 21.99652564 1.31359444 24.99750009 1 28 C0.67 28 0.34 28 0 28 C0 18.76 0 9.52 0 0 Z " fill="#050505" transform="translate(352,49)"/>
<path d="M0 0 C3.48824341 0.2583884 4.24214247 1.26466736 6.6875 3.9375 C9.49179779 7.65129978 10.12719966 9.09602393 10.0625 13.625 C10.05347656 14.44226562 10.04445312 15.25953125 10.03515625 16.1015625 C10.02355469 16.72804688 10.01195312 17.35453125 10 18 C8.6506202 15.41608123 7.59322205 12.89217535 6.6875 10.125 C5.17147844 5.95203344 3.00126447 3.24461024 0 0 Z " fill="#0A0A09" transform="translate(240,38)"/>
<path d="M0 0 C2.00643807 3.00965711 3.89613698 6.0738584 5.78125 9.16015625 C7.0002469 11.13291595 7.0002469 11.13291595 9 13 C8.01 13.495 8.01 13.495 7 14 C0.1125 7.475 0.1125 7.475 -0.125 2.25 C-0.063125 1.13625 -0.063125 1.13625 0 0 Z " fill="#0C0C0C" transform="translate(335,85)"/>
<path d="M0 0 C1.32 0.33 2.64 0.66 4 1 C-0.49344368 5.64322514 -4.86698764 5.76182476 -11 6 C-11 5.34 -11 4.68 -11 4 C-10.28972656 3.87882812 -9.57945313 3.75765625 -8.84765625 3.6328125 C-7.92855469 3.46523437 -7.00945312 3.29765625 -6.0625 3.125 C-5.14597656 2.96257812 -4.22945313 2.80015625 -3.28515625 2.6328125 C-2.53105469 2.42398438 -1.77695313 2.21515625 -1 2 C-0.67 1.34 -0.34 0.68 0 0 Z " fill="#0C0B0D" transform="translate(119,84)"/>
<path d="M0 0 C4.55015893 1.51671964 6.50057264 5.16891053 9 9 C8.67 9.66 8.34 10.32 8 11 C3 5.25 3 5.25 3 3 C0.36 3.66 -2.28 4.32 -5 5 C-3.35 3.35 -1.7 1.7 0 0 Z " fill="#205FF2" transform="translate(838,81)"/>
<path d="M0 0 C1.51953125 1.11328125 1.51953125 1.11328125 3 3 C3.07421875 5.91796875 3.07421875 5.91796875 2.6875 9.1875 C2.56761719 10.27417969 2.44773437 11.36085938 2.32421875 12.48046875 C2.21722656 13.31191406 2.11023438 14.14335938 2 15 C1.67 15 1.34 15 1 15 C-0.03590199 9.94997778 -0.10251672 5.12583611 0 0 Z " fill="#090909" transform="translate(393,43)"/>
<path d="M0 0 C0.66 0 1.32 0 2 0 C2 0.66 2 1.32 2 2 C2.85851562 2.41378906 2.85851562 2.41378906 3.734375 2.8359375 C5.98964267 3.99467848 8.10856378 5.26875706 10.25 6.625 C10.95640625 7.07101563 11.6628125 7.51703125 12.390625 7.9765625 C12.92171875 8.31429687 13.4528125 8.65203125 14 9 C11 10 11 10 8.80859375 8.92578125 C8.02613281 8.39339844 7.24367188 7.86101562 6.4375 7.3125 C5.65246094 6.79300781 4.86742187 6.27351563 4.05859375 5.73828125 C1.93321591 3.94360736 1.02964585 2.55463485 0 0 Z " fill="#215EF1" transform="translate(795,90)"/>
<path d="M0 0 C2.12317317 2.12317317 2.84760945 3.69607091 4 6.4375 C5.17758428 9.22966273 6.30353281 11.45529922 8 14 C7.01 14 6.02 14 5 14 C4.1533966 12.61217515 3.32324661 11.21430603 2.5 9.8125 C2.0359375 9.03519531 1.571875 8.25789063 1.09375 7.45703125 C-0.10729647 4.75896614 -0.20741043 2.9193018 0 0 Z " fill="#0C0C0C" transform="translate(5,70)"/>
<path d="M0 0 C2.64 0.33 5.28 0.66 8 1 C8.625 3.8125 8.625 3.8125 9 7 C8.01 8.485 8.01 8.485 7 10 C6.67 7.69 6.34 5.38 6 3 C4.02 2.34 2.04 1.68 0 1 C0 0.67 0 0.34 0 0 Z " fill="#0C0B0B" transform="translate(116,72)"/>
<path d="M0 0 C2.09375 0.13671875 2.09375 0.13671875 4.5 0.6875 C5.2940625 0.85636719 6.088125 1.02523437 6.90625 1.19921875 C9 2 9 2 11 5 C8.16032769 5 5.76264289 4.59732819 3 4 C3 3.34 3 2.68 3 2 C1.35 2 -0.3 2 -2 2 C-1.34 1.34 -0.68 0.68 0 0 Z " fill="#090909" transform="translate(220,50)"/>
<path d="M0 0 C-1.58093054 1.12837409 -3.16484716 2.25256518 -4.75 3.375 C-5.63171875 4.00148438 -6.5134375 4.62796875 -7.421875 5.2734375 C-9.57414979 6.71480941 -11.65460523 7.91498093 -14 9 C-5.39177489 -1.7972583 -5.39177489 -1.7972583 0 0 Z " fill="#1D5DF1" transform="translate(693,38)"/>
<path d="M0 0 C0.66 0 1.32 0 2 0 C2 0.66 2 1.32 2 2 C1.34 2 0.68 2 0 2 C0 3.98 0 5.96 0 8 C0.99 8.33 1.98 8.66 3 9 C3 9.66 3 10.32 3 11 C1.0625 10.625 1.0625 10.625 -1 10 C-2.38125018 7.23749964 -2.19079306 5.05268901 -2 2 C-1.34 1.34 -0.68 0.68 0 0 Z " fill="#0C0D0E" transform="translate(422,49)"/>
<path d="M0 0 C-2.06473354 2.06473354 -3.24566146 2.60506767 -5.9375 3.5625 C-6.62714844 3.81128906 -7.31679687 4.06007813 -8.02734375 4.31640625 C-9.68085359 4.88940471 -11.33982537 5.44660846 -13 6 C-12 3 -12 3 -9.875 1.3125 C-6.39918304 -0.274286 -3.77907627 -0.2222986 0 0 Z " fill="#090808" transform="translate(105,63)"/>
<path d="M0 0 C5.94 0.99 5.94 0.99 12 2 C9 4 9 4 6 3.8125 C3 3 3 3 0 0 Z " fill="#0A0A0A" transform="translate(284,84)"/>
<path d="M0 0 C0.23460937 0.62390625 0.46921875 1.2478125 0.7109375 1.890625 C2.36823075 4.60255941 3.6141599 4.88975997 6.625 5.75 C7.85089844 6.11351563 7.85089844 6.11351563 9.1015625 6.484375 C9.72804688 6.65453125 10.35453125 6.8246875 11 7 C7.03483443 8.19298271 4.81058817 7.73961634 1 6 C-0.4375 4 -0.4375 4 -1 2 C-0.67 1.34 -0.34 0.68 0 0 Z " fill="#0A090B" transform="translate(354,79)"/>
<path d="M0 0 C-3.63 1.98 -7.26 3.96 -11 6 C-11 5.01 -11 4.02 -11 3 C-4.5 -1.125 -4.5 -1.125 0 0 Z " fill="#0C0D0C" transform="translate(99,38)"/>
<path d="M0 0 C0.33 0 0.66 0 1 0 C1.33 2.64 1.66 5.28 2 8 C2.66 8 3.32 8 4 8 C3.67 8.99 3.34 9.98 3 11 C1 9.375 1 9.375 -1 7 C-1.3125 3.8125 -1.3125 3.8125 -1 1 C-0.67 0.67 -0.34 0.34 0 0 Z " fill="#0A080B" transform="translate(103,78)"/>
<path d="M0 0 C0.33 0 0.66 0 1 0 C1.22304441 1.74818591 1.4278645 3.49870323 1.625 5.25 C1.74101562 6.22453125 1.85703125 7.1990625 1.9765625 8.203125 C2.00112537 11.13429393 1.5312717 12.54528964 0 15 C-1.67479795 9.97560615 -1.23615622 5.09914442 0 0 Z " fill="#030302" transform="translate(23,47)"/>
<path d="M0 0 C0.99 0.33 1.98 0.66 3 1 C2.236875 1.5775 1.47375 2.155 0.6875 2.75 C-1.66200917 4.71703093 -3.29323505 6.48476744 -5 9 C-5.33 8.01 -5.66 7.02 -6 6 C-2.83636364 1.41818182 -2.83636364 1.41818182 0 0 Z " fill="#0C0C0E" transform="translate(411,39)"/>
<path d="M0 0 C4.99911924 0.47610659 7.97832683 2.03162219 12 5 C9 6 9 6 6.73828125 5.00390625 C5.93777344 4.52824219 5.13726562 4.05257813 4.3125 3.5625 C3.50425781 3.08941406 2.69601563 2.61632812 1.86328125 2.12890625 C1.24839844 1.75636719 0.63351563 1.38382813 0 1 C0 0.67 0 0.34 0 0 Z " fill="#0A0A0A" transform="translate(66,10)"/>
<path d="M0 0 C1.1055189 0.93590504 2.20935453 1.87379858 3.3125 2.8125 C3.92738281 3.33457031 4.54226563 3.85664062 5.17578125 4.39453125 C6.85424679 5.87172469 8.43882034 7.40039131 10 9 C5.70057465 8.52228607 3.7064865 7.38310813 1 4 C0.62307021 2.67832953 0.28199726 1.34512692 0 0 Z " fill="#1B66F5" transform="translate(692,78)"/>
<path d="M0 0 C3 1 3 1 4.1875 3.375 C5 6 5 6 5 9 C4.34 9 3.68 9 3 9 C2.01 6.03 1.02 3.06 0 0 Z " fill="#0B0A0A" transform="translate(120,52)"/>
<path d="M0 0 C2.475 0.99 2.475 0.99 5 2 C4.67 2.66 4.34 3.32 4 4 C1.67843403 4.40729228 -0.6568787 4.74438677 -3 5 C-2.01 3.35 -1.02 1.7 0 0 Z " fill="#0B0C0D" transform="translate(410,81)"/>
<path d="M0 0 C0.75 1.6875 0.75 1.6875 1 4 C-0.9375 6.75 -0.9375 6.75 -3 9 C-3.99 8.67 -4.98 8.34 -6 8 C-5.38125 7.4225 -4.7625 6.845 -4.125 6.25 C-2.18652947 4.19750179 -1.09985751 2.56633418 0 0 Z " fill="#0A090A" transform="translate(306,75)"/>
<path d="M0 0 C0.33 0 0.66 0 1 0 C1.33 4.29 1.66 8.58 2 13 C1.01 13.66 0.02 14.32 -1 15 C-0.67 10.05 -0.34 5.1 0 0 Z " fill="#205CF9" transform="translate(784,41)"/>
<path d="M0 0 C0.66 1.32 1.32 2.64 2 4 C-1.20062687 5.60031344 -3.72271806 4.03173691 -7 3 C-7 2.67 -7 2.34 -7 2 C-4.69 2 -2.38 2 0 2 C0 1.34 0 0.68 0 0 Z " fill="#0B0A0B" transform="translate(171,97)"/>
<path d="M0 0 C0.33 0 0.66 0 1 0 C0.67 3.63 0.34 7.26 0 11 C-0.33 11 -0.66 11 -1 11 C-1.22174933 9.54364629 -1.42698698 8.08477044 -1.625 6.625 C-1.74101562 5.81289062 -1.85703125 5.00078125 -1.9765625 4.1640625 C-1.98429688 3.44992188 -1.99203125 2.73578125 -2 2 C-1.34 1.34 -0.68 0.68 0 0 Z " fill="#191919" transform="translate(193,69)"/>
<path d="M0 0 C1.65 0 3.3 0 5 0 C5 0.33 5 0.66 5 1 C3.35 1 1.7 1 0 1 C0 0.67 0 0.34 0 0 Z " fill="#00B2FF" transform="translate(817,60)"/>
<path d="M0 0 C4 1 4 1 4 1 Z " fill="#7F7FFF" transform="translate(641,32)"/>
<path d="M0 0 C0.66 0.66 1.32 1.32 2 2 C1.34 2 0.68 2 0 2 C0 1.34 0 0.68 0 0 Z " fill="#000000" transform="translate(283,79)"/>
<path d="" fill="#000000" transform="translate(0,0)"/>
<path d="M0 0 C3 1 3 1 3 1 Z " fill="#3E71FF" transform="translate(819,51)"/>
<path d="M0 0 C2 1 2 1 2 1 Z " fill="#000000" transform="translate(97,103)"/>
<path d="M0 0 C2 1 2 1 2 1 Z " fill="#00FFFF" transform="translate(808,102)"/>
<path d="M0 0 C2 1 2 1 2 1 Z " fill="#003FFF" transform="translate(822,85)"/>
<path d="" fill="#000000" transform="translate(0,0)"/>
<path d="" fill="#000000" transform="translate(0,0)"/>
<path d="M0 0 C2 1 2 1 2 1 Z " fill="#00FFFF" transform="translate(824,60)"/>
<path d="" fill="#000000" transform="translate(0,0)"/>
<path d="M0 0 C2 1 2 1 2 1 Z " fill="#444444" transform="translate(119,60)"/>
<path d="" fill="#2A0000" transform="translate(0,0)"/>
<path d="" fill="#000000" transform="translate(0,0)"/>
<path d="M0 0 C2 1 2 1 2 1 Z " fill="#003FFF" transform="translate(567,54)"/>
<path d="" fill="#000000" transform="translate(0,0)"/>
<path d="" fill="#00FFFF" transform="translate(0,0)"/>
<path d="M0 0 C2 1 2 1 2 1 Z " fill="#7F7FFF" transform="translate(688,36)"/>
<path d="M0 0 C2 1 2 1 2 1 Z " fill="#0000FF" transform="translate(536,33)"/>
<path d="M0 0 C2 1 2 1 2 1 Z " fill="#000000" transform="translate(63,33)"/>
<path d="M0 0 C2 1 2 1 2 1 Z " fill="#3FBFFF" transform="translate(707,32)"/>
<path d="M0 0 C2 1 2 1 2 1 Z " fill="#000000" transform="translate(116,32)"/>
<path d="M0 0 C2 1 2 1 2 1 Z " fill="#000000" transform="translate(52,27)"/>
<path d="M0 0 C2 1 2 1 2 1 Z " fill="#3FBFFF" transform="translate(517,23)"/>
<path d="M0 0 C2 1 2 1 2 1 Z " fill="#00FFFF" transform="translate(499,6)"/>
<path d="" fill="#55AAFF" transform="translate(0,0)"/>
<path d="" fill="#000000" transform="translate(0,0)"/>
<path d="" fill="#00FFFF" transform="translate(0,0)"/>
<path d="" fill="#00FFFF" transform="translate(0,0)"/>
<path d="" fill="#00FFFF" transform="translate(0,0)"/>
<path d="" fill="#00FFFF" transform="translate(0,0)"/>
<path d="" fill="#0000FF" transform="translate(0,0)"/>
<path d="" fill="#00FFFF" transform="translate(0,0)"/>
<path d="" fill="#0000FF" transform="translate(0,0)"/>
<path d="" fill="#7F7FFF" transform="translate(0,0)"/>
<path d="" fill="#0000FF" transform="translate(0,0)"/>
<path d="" fill="#000000" transform="translate(0,0)"/>
<path d="" fill="#000000" transform="translate(0,0)"/>
<path d="" fill="#000000" transform="translate(0,0)"/>
<path d="" fill="#00FFFF" transform="translate(0,0)"/>
<path d="" fill="#7F7FFF" transform="translate(0,0)"/>
<path d="" fill="#0000FF" transform="translate(0,0)"/>
<path d="" fill="#0000FF" transform="translate(0,0)"/>
<path d="" fill="#7F7FFF" transform="translate(0,0)"/>
<path d="" fill="#00FFFF" transform="translate(0,0)"/>
<path d="" fill="#000000" transform="translate(0,0)"/>
<path d="" fill="#000000" transform="translate(0,0)"/>
<path d="" fill="#000000" transform="translate(0,0)"/>
<path d="" fill="#000000" transform="translate(0,0)"/>
<path d="" fill="#000000" transform="translate(0,0)"/>
<path d="" fill="#55AAFF" transform="translate(0,0)"/>
<path d="" fill="#00FFFF" transform="translate(0,0)"/>
<path d="" fill="#00FFFF" transform="translate(0,0)"/>
<path d="" fill="#0000FF" transform="translate(0,0)"/>
<path d="" fill="#000000" transform="translate(0,0)"/>
<path d="" fill="#000000" transform="translate(0,0)"/>
<path d="" fill="#000000" transform="translate(0,0)"/>
<path d="" fill="#000000" transform="translate(0,0)"/>
<path d="" fill="#3F7FFF" transform="translate(0,0)"/>
<path d="" fill="#0000FF" transform="translate(0,0)"/>
<path d="" fill="#7F7F7F" transform="translate(0,0)"/>
<path d="" fill="#000000" transform="translate(0,0)"/>
<path d="" fill="#000000" transform="translate(0,0)"/>
<path d="" fill="#000000" transform="translate(0,0)"/>
<path d="" fill="#000000" transform="translate(0,0)"/>
<path d="" fill="#000000" transform="translate(0,0)"/>
<path d="" fill="#0000FF" transform="translate(0,0)"/>
<path d="" fill="#0000FF" transform="translate(0,0)"/>
<path d="" fill="#000000" transform="translate(0,0)"/>
<path d="" fill="#555555" transform="translate(0,0)"/>
<path d="" fill="#0000FF" transform="translate(0,0)"/>
<path d="" fill="#7F7FFF" transform="translate(0,0)"/>
<path d="" fill="#0000FF" transform="translate(0,0)"/>
<path d="" fill="#00FFFF" transform="translate(0,0)"/>
<path d="" fill="#00FFFF" transform="translate(0,0)"/>
<path d="" fill="#000000" transform="translate(0,0)"/>
<path d="" fill="#000000" transform="translate(0,0)"/>
<path d="" fill="#007FFF" transform="translate(0,0)"/>
<path d="" fill="#00FFFF" transform="translate(0,0)"/>
<path d="" fill="#0000FF" transform="translate(0,0)"/>
<path d="" fill="#00FFFF" transform="translate(0,0)"/>
<path d="" fill="#000000" transform="translate(0,0)"/>
<path d="" fill="#000000" transform="translate(0,0)"/>
<path d="" fill="#000000" transform="translate(0,0)"/>
<path d="" fill="#007FFF" transform="translate(0,0)"/>
<path d="" fill="#000000" transform="translate(0,0)"/>
<path d="" fill="#000000" transform="translate(0,0)"/>
<path d="" fill="#000000" transform="translate(0,0)"/>
<path d="" fill="#000000" transform="translate(0,0)"/>
<path d="" fill="#0000FF" transform="translate(0,0)"/>
<path d="" fill="#55AAFF" transform="translate(0,0)"/>
<path d="" fill="#0000FF" transform="translate(0,0)"/>
<path d="" fill="#55AAFF" transform="translate(0,0)"/>
<path d="" fill="#000000" transform="translate(0,0)"/>
<path d="" fill="#00FFFF" transform="translate(0,0)"/>
<path d="" fill="#00FFFF" transform="translate(0,0)"/>
<path d="" fill="#005555" transform="translate(0,0)"/>
<path d="" fill="#000000" transform="translate(0,0)"/>
<path d="" fill="#000000" transform="translate(0,0)"/>
<path d="" fill="#007FFF" transform="translate(0,0)"/>
<path d="" fill="#000000" transform="translate(0,0)"/>
<path d="" fill="#007FFF" transform="translate(0,0)"/>
<path d="" fill="#00FFFF" transform="translate(0,0)"/>
<path d="" fill="#3399FF" transform="translate(0,0)"/>
<path d="" fill="#007FFF" transform="translate(0,0)"/>
<path d="" fill="#007FFF" transform="translate(0,0)"/>
<path d="" fill="#007FFF" transform="translate(0,0)"/>
<path d="" fill="#000000" transform="translate(0,0)"/>
<path d="" fill="#000000" transform="translate(0,0)"/>
<path d="" fill="#000000" transform="translate(0,0)"/>
<path d="" fill="#000000" transform="translate(0,0)"/>
<path d="" fill="#0000FF" transform="translate(0,0)"/>
<path d="" fill="#000000" transform="translate(0,0)"/>
<path d="" fill="#000000" transform="translate(0,0)"/>
<path d="" fill="#000000" transform="translate(0,0)"/>
<path d="" fill="#0000FF" transform="translate(0,0)"/>
<path d="" fill="#000000" transform="translate(0,0)"/>
<path d="" fill="#000000" transform="translate(0,0)"/>
<path d="" fill="#00FFFF" transform="translate(0,0)"/>
<path d="" fill="#5555FF" transform="translate(0,0)"/>
<path d="" fill="#0000FF" transform="translate(0,0)"/>
<path d="" fill="#007F7F" transform="translate(0,0)"/>
<path d="" fill="#000000" transform="translate(0,0)"/>
<path d="" fill="#007FFF" transform="translate(0,0)"/>
<path d="" fill="#00FFFF" transform="translate(0,0)"/>
<path d="" fill="#000000" transform="translate(0,0)"/>
<path d="" fill="#5555FF" transform="translate(0,0)"/>
<path d="" fill="#0000FF" transform="translate(0,0)"/>
<path d="" fill="#007FFF" transform="translate(0,0)"/>
<path d="" fill="#00FFFF" transform="translate(0,0)"/>
<path d="" fill="#000000" transform="translate(0,0)"/>
<path d="" fill="#5555FF" transform="translate(0,0)"/>
<path d="" fill="#00FFFF" transform="translate(0,0)"/>
<path d="" fill="#0000FF" transform="translate(0,0)"/>
<path d="" fill="#00FFFF" transform="translate(0,0)"/>
<path d="" fill="#00FFFF" transform="translate(0,0)"/>
<path d="" fill="#000000" transform="translate(0,0)"/>
<path d="" fill="#00FFFF" transform="translate(0,0)"/>
<path d="" fill="#0000FF" transform="translate(0,0)"/>
<path d="" fill="#007FFF" transform="translate(0,0)"/>
<path d="" fill="#000000" transform="translate(0,0)"/>
<path d="" fill="#000000" transform="translate(0,0)"/>
<path d="" fill="#000000" transform="translate(0,0)"/>
<path d="" fill="#000000" transform="translate(0,0)"/>
<path d="" fill="#555555" transform="translate(0,0)"/>
<path d="" fill="#000000" transform="translate(0,0)"/>
<path d="" fill="#7F7FFF" transform="translate(0,0)"/>
<path d="" fill="#00FFFF" transform="translate(0,0)"/>
<path d="" fill="#00FFFF" transform="translate(0,0)"/>
<path d="" fill="#00FFFF" transform="translate(0,0)"/>
<path d="" fill="#0000FF" transform="translate(0,0)"/>
<path d="" fill="#000000" transform="translate(0,0)"/>
<path d="" fill="#000000" transform="translate(0,0)"/>
<path d="" fill="#7F7FFF" transform="translate(0,0)"/>
<path d="" fill="#00FFFF" transform="translate(0,0)"/>
<path d="" fill="#00FFFF" transform="translate(0,0)"/>
<path d="" fill="#000000" transform="translate(0,0)"/>
<path d="" fill="#000000" transform="translate(0,0)"/>
<path d="" fill="#000000" transform="translate(0,0)"/>
<path d="" fill="#0000FF" transform="translate(0,0)"/>
<path d="" fill="#000000" transform="translate(0,0)"/>
<path d="" fill="#00FFFF" transform="translate(0,0)"/>
<path d="" fill="#555555" transform="translate(0,0)"/>
<path d="" fill="#0000FF" transform="translate(0,0)"/>
<path d="" fill="#0000FF" transform="translate(0,0)"/>
<path d="" fill="#000000" transform="translate(0,0)"/>
<path d="" fill="#000000" transform="translate(0,0)"/>
<path d="" fill="#00FFFF" transform="translate(0,0)"/>
<path d="" fill="#2A2A2A" transform="translate(0,0)"/>
<path d="" fill="#7F7FFF" transform="translate(0,0)"/>
<path d="" fill="#000000" transform="translate(0,0)"/>
<path d="" fill="#000000" transform="translate(0,0)"/>
<path d="" fill="#000000" transform="translate(0,0)"/>
<path d="" fill="#00FFFF" transform="translate(0,0)"/>
<path d="" fill="#00FFFF" transform="translate(0,0)"/>
<path d="" fill="#00FFFF" transform="translate(0,0)"/>
<path d="" fill="#000000" transform="translate(0,0)"/>
<path d="" fill="#000000" transform="translate(0,0)"/>
</svg>
